<svg width="17" height="15" viewBox="0 0 17 15" fill="none" xmlns="http://www.w3.org/2000/svg">
<g filter="url(#filter0_d_212_1430)">
<path d="M1.89062 3.14239C1.89063 2.5447 2.12806 1.97149 2.55069 1.54886C2.97332 1.12623 3.54653 0.888794 4.14422 0.888794H13.6594C14.2571 0.888794 14.8303 1.12623 15.253 1.54886C15.6756 1.97149 15.913 2.5447 15.913 3.14239V9.65279C15.913 10.2505 15.6756 10.8237 15.253 11.2463C14.8303 11.669 14.2571 11.9064 13.6594 11.9064H4.14422C3.54653 11.9064 2.97332 11.669 2.55069 11.2463C2.12806 10.8237 1.89063 10.2505 1.89062 9.65279V3.14239ZM4.14422 1.89039C3.81217 1.89039 3.49372 2.0223 3.25893 2.2571C3.02413 2.49189 2.89222 2.81034 2.89222 3.14239V3.89359H14.9114V3.14239C14.9114 2.81034 14.7795 2.49189 14.5447 2.2571C14.3099 2.0223 13.9915 1.89039 13.6594 1.89039H4.14422ZM2.89222 9.65279C2.89222 9.98484 3.02413 10.3033 3.25893 10.5381C3.49372 10.7729 3.81217 10.9048 4.14422 10.9048H13.6594C13.9915 10.9048 14.3099 10.7729 14.5447 10.5381C14.7795 10.3033 14.9114 9.98484 14.9114 9.65279V4.89519H2.89222V9.65279ZM11.4058 7.89999H12.9082C13.041 7.89999 13.1684 7.95275 13.2623 8.04667C13.3563 8.14059 13.409 8.26797 13.409 8.40079C13.409 8.53361 13.3563 8.66099 13.2623 8.75491C13.1684 8.84883 13.041 8.90159 12.9082 8.90159H11.4058C11.273 8.90159 11.1456 8.84883 11.0517 8.75491C10.9578 8.66099 10.905 8.53361 10.905 8.40079C10.905 8.26797 10.9578 8.14059 11.0517 8.04667C11.1456 7.95275 11.273 7.89999 11.4058 7.89999Z" fill="#4CAF4F"/>
<path d="M2.72529 3.89359V4.06053H2.89222H14.9114H15.0784V3.89359V3.14239C15.0784 2.76607 14.9289 2.40516 14.6628 2.13906C14.3967 1.87295 14.0357 1.72346 13.6594 1.72346H4.14422C3.7679 1.72346 3.40699 1.87295 3.14089 2.13906C2.87479 2.40516 2.72529 2.76607 2.72529 3.14239V3.89359ZM15.0784 4.89519V4.72826H14.9114H2.89222H2.72529V4.89519V9.65279C2.72529 10.0291 2.87479 10.39 3.14089 10.6561C3.40699 10.9222 3.7679 11.0717 4.14422 11.0717H13.6594C14.0357 11.0717 14.3967 10.9222 14.6628 10.6561C14.9289 10.39 15.0784 10.0291 15.0784 9.65279V4.89519ZM2.05756 3.14239C2.05756 2.58898 2.2774 2.05822 2.66873 1.6669C3.06005 1.27557 3.59081 1.05573 4.14422 1.05573H13.6594C14.2128 1.05573 14.7436 1.27557 15.1349 1.6669C15.5262 2.05822 15.7461 2.58898 15.7461 3.14239V9.65279C15.7461 10.2062 15.5262 10.737 15.1349 11.1283C14.7436 11.5196 14.2128 11.7395 13.6594 11.7395H4.14422C3.59081 11.7395 3.06005 11.5196 2.66873 11.1283C2.2774 10.737 2.05756 10.2062 2.05756 9.65279V3.14239ZM11.4058 8.06692H12.9082C12.9968 8.06692 13.0817 8.1021 13.1443 8.16471C13.2069 8.22732 13.2421 8.31224 13.2421 8.40079C13.2421 8.48934 13.2069 8.57426 13.1443 8.63687C13.0817 8.69948 12.9968 8.73466 12.9082 8.73466H11.4058C11.3173 8.73466 11.2324 8.69948 11.1697 8.63687C11.1071 8.57426 11.072 8.48934 11.072 8.40079C11.072 8.31224 11.1071 8.22732 11.1697 8.16471C11.2324 8.1021 11.3173 8.06692 11.4058 8.06692Z" stroke="#4CAF4F" stroke-width="0.333867"/>
</g>
<defs>
<filter id="filter0_d_212_1430" x="-2.10938" y="0.888794" width="22.0223" height="19.0176" filterUnits="userSpaceOnUse" color-interpolation-filters="sRGB">
<feFlood flood-opacity="0" result="BackgroundImageFix"/>
<feColorMatrix in="SourceAlpha" type="matrix" values="0 0 0 0 0 0 0 0 0 0 0 0 0 0 0 0 0 0 127 0" result="hardAlpha"/>
<feOffset dy="4"/>
<feGaussianBlur stdDeviation="2"/>
<feComposite in2="hardAlpha" operator="out"/>
<feColorMatrix type="matrix" values="0 0 0 0 0 0 0 0 0 0 0 0 0 0 0 0 0 0 0.25 0"/>
<feBlend mode="normal" in2="BackgroundImageFix" result="effect1_dropShadow_212_1430"/>
<feBlend mode="normal" in="SourceGraphic" in2="effect1_dropShadow_212_1430" result="shape"/>
</filter>
</defs>
</svg>
